# xmcd
#
# Track frame offsets:
#	150
#	11963
#	26008
#	41669
#	54217
#	68033
#	81286
#	98127
#	110992
#	124443
#	137009
#	147455
#	164311
#	175094
#	185646
#	197193
#	205356
#	218408
#	230025
#	248778
#
# Disc length: 3459 seconds
#
# Revision: 13
# Processed by: cddbd v1.5.2PL0 Copyright (c) Steve Scherf et al.
# Submitted via: EasyCDDAExtractor 10.0.2.1
#
DISCID=2f0d8114
DTITLE=Johnny Cash - The Best Of
DYEAR=1988
DGENRE=Country
TTITLE0=Ring Of Fire
TTITLE1=Orange Blossom Special
TTITLE2=The Night They Drove Old Dixie Down
TTITLE3=Jackson
TTITLE4=Don't Take Your Guns To Town
TTITLE5=I Walk The Line
TTITLE6=Boy Named Sue (Live)
TTITLE7=San Quentin
TTITLE8=If I Were A Carpenter (With June Carter)
TTITLE9=Folsom Prison Blues (Live)
TTITLE10=Kate
TTITLE11=Ghost Riders In The Sky
TTITLE12=Daddy Sang Bass
TTITLE13=Bonanza
TTITLE14=In Them Old Cottonfields Back Home
TTITLE15=Five Feet High And Rising
TTITLE16=Man In Black
TTITLE17=Thing Called Love
TTITLE18=The Ballad Of Ira Hayes
TTITLE19=In The Jailhouse Now
EXTD=
EXTT0=
EXTT1=
EXTT2=
EXTT3=
EXTT4=
EXTT5=
EXTT6=
EXTT7=
EXTT8=
EXTT9=
EXTT10=
EXTT11=
EXTT12=
EXTT13=
EXTT14=
EXTT15=
EXTT16=
EXTT17=
EXTT18=
EXTT19=
PLAYORDER=
